<svg xmlns="http://www.w3.org/2000/svg" width="18" height="23.573" viewBox="0 0 18 23.573">
  <path id="Vector" d="M8.983,23.86c-2.989-3.994-6-7.785-8.134-12.154C-1.851,6.19,2.332,1.307,7.192.451S16.485,2.192,17.771,6.6a6.04,6.04,0,0,1-.3,4.086,45.478,45.478,0,0,1-6,9.906C10.686,21.659,9.865,22.7,8.983,23.86Zm4.17-15.03A4.066,4.066,0,0,0,9.009,4.807,4.079,4.079,0,0,0,4.817,8.788a4.081,4.081,0,0,0,4.148,4.023A4.073,4.073,0,0,0,13.153,8.83Z" transform="translate(0 -0.287)" fill="#2f3241"/>
</svg>
