<svg xmlns="http://www.w3.org/2000/svg" xmlns:xlink="http://www.w3.org/1999/xlink" width="18" height="13" viewBox="0 0 18 13">
  <defs>
    <clipPath id="clip-path">
      <rect id="Rectangle_4893" data-name="Rectangle 4893" width="18" height="13" transform="translate(-0.491)" fill="#2f3241"/>
    </clipPath>
  </defs>
  <g id="Frame-1" transform="translate(0.491)" clip-path="url(#clip-path)">
    <path id="Path_41128" data-name="Path 41128" d="M16.885,12.662c-.048,0-.094.006-.142.006H1.388c-.048,0-.093-.006-.142-.006H1.133a1.153,1.153,0,0,1-1.042-.731A1.286,1.286,0,0,1,0,11.51Q-.005,7.387,0,3.261v-.1l.617.381L2.657,4.794Q4.433,5.891,6.2,6.988c.8.5,1.606.979,2.4,1.477a.809.809,0,0,0,.909-.006c.694-.421,1.377-.854,2.068-1.278S13,6.322,13.7,5.893c.728-.447,1.453-.9,2.184-1.346.708-.435,1.419-.862,2.13-1.295.009,0,.014-.009.023-.011l0,0c.028,0,.06,0,.088.006,0,.028.006.057.006.085q0,4.059,0,8.118a1.141,1.141,0,0,1-.64,1.084,2.318,2.318,0,0,1-.467.131A.978.978,0,0,0,16.885,12.662Z" transform="translate(-0.491 0.285)" fill="#2f3241"/>
    <path id="Path_41129" data-name="Path 41129" d="M9.05.5h7.673a1.437,1.437,0,0,1,.946.25A1.224,1.224,0,0,1,18.131,1.8c0,.034-.042.077-.079.1L15.825,3.266c-.578.356-1.15.714-1.725,1.07Q12.048,5.595,9.993,6.851c-.278.171-.552.339-.824.518a.157.157,0,0,1-.2,0L6.444,5.81Q5,4.922,3.566,4.037C2.895,3.624,2.218,3.217,1.544,2.8,1.057,2.5.567,2.2.079,1.894a.171.171,0,0,1-.074-.108A1.173,1.173,0,0,1,1.028.526c.15-.011.3-.026.448-.026Z" transform="translate(-0.491 -0.5)" fill="#2f3241"/>
    <path id="Path_41130" data-name="Path 41130" d="M14.016,3.236c-.028,0-.059,0-.088-.006l.085-.046C14.013,3.2,14.016,3.219,14.016,3.236Z" transform="translate(3.621 0.293)" fill="#2f3241"/>
    <path id="Path_41131" data-name="Path 41131" d="M13.935,3.22c-.009,0-.014.009-.023.011A.023.023,0,0,1,13.935,3.22Z" transform="translate(3.617 0.303)" fill="#2f3241"/>
  </g>
</svg>
