<svg xmlns="http://www.w3.org/2000/svg" width="30.068" height="29.282" viewBox="0 0 30.068 29.282">
  <path id="_icon__Facebook_Square_" data-name="🦆 icon _Facebook Square_" d="M26.846,0H3.222A3.266,3.266,0,0,0,.944.919,3.1,3.1,0,0,0,0,3.137V26.145a3.1,3.1,0,0,0,.944,2.218,3.266,3.266,0,0,0,2.278.919h9.212V19.327H8.2V14.641h4.228V11.07c0-4.062,2.483-6.306,6.287-6.306a26.283,26.283,0,0,1,3.726.316V9.067h-2.1A2.374,2.374,0,0,0,17.635,11.6v3.043h4.616l-.738,4.686H17.635v9.955h9.212a3.266,3.266,0,0,0,2.278-.919,3.1,3.1,0,0,0,.944-2.218V3.137A3.1,3.1,0,0,0,29.124.919,3.266,3.266,0,0,0,26.846,0Z" fill="#2f3241"/>
</svg>
