<svg xmlns="http://www.w3.org/2000/svg" width="30.068" height="29.282" viewBox="0 0 30.068 29.282">
  <path id="_icon__Instagram_Square_" data-name="🦆 icon _Instagram Square_" d="M15.406,11.155a3.648,3.648,0,0,0-1.989.588A3.508,3.508,0,0,0,12.1,13.308a3.4,3.4,0,0,0-.2,2.014,3.459,3.459,0,0,0,.98,1.785,3.611,3.611,0,0,0,1.833.954,3.67,3.67,0,0,0,2.068-.2,3.562,3.562,0,0,0,1.606-1.284,3.415,3.415,0,0,0-.447-4.4A3.632,3.632,0,0,0,15.406,11.155Zm8.37-2.68a3.523,3.523,0,0,0-.809-1.2,3.635,3.635,0,0,0-1.232-.787c-1.409-.542-4.765-.42-6.329-.42s-4.916-.126-6.33.42a3.635,3.635,0,0,0-1.232.787,3.523,3.523,0,0,0-.809,1.2C6.48,9.847,6.6,13.119,6.6,14.64s-.124,4.789.434,6.166a3.523,3.523,0,0,0,.809,1.2,3.635,3.635,0,0,0,1.232.787c1.409.542,4.765.42,6.33.42s4.916.126,6.329-.42a3.635,3.635,0,0,0,1.232-.787,3.523,3.523,0,0,0,.809-1.2c.56-1.373.432-4.644.432-6.166s.129-4.788-.432-6.166ZM15.406,20a5.609,5.609,0,0,1-3.058-.9,5.393,5.393,0,0,1-2.027-2.405,5.229,5.229,0,0,1-.313-3.1,5.317,5.317,0,0,1,1.506-2.744,5.55,5.55,0,0,1,2.818-1.467,5.64,5.64,0,0,1,3.18.3,5.474,5.474,0,0,1,2.47,1.974,5.249,5.249,0,0,1,.51,5.03,5.346,5.346,0,0,1-1.193,1.74,5.509,5.509,0,0,1-1.786,1.162A5.625,5.625,0,0,1,15.406,20Zm5.73-9.693a1.309,1.309,0,0,1-.714-.211,1.258,1.258,0,0,1-.473-.561,1.22,1.22,0,0,1-.073-.723,1.241,1.241,0,0,1,.351-.641,1.3,1.3,0,0,1,.658-.343,1.317,1.317,0,0,1,.742.071,1.278,1.278,0,0,1,.577.461,1.231,1.231,0,0,1,.121,1.174,1.245,1.245,0,0,1-.277.407,1.285,1.285,0,0,1-.416.272,1.311,1.311,0,0,1-.492.1ZM27.218,0H3.594A3.266,3.266,0,0,0,1.316.919,3.1,3.1,0,0,0,.372,3.137V26.145a3.1,3.1,0,0,0,.944,2.218,3.266,3.266,0,0,0,2.278.919H27.218a3.266,3.266,0,0,0,2.278-.919,3.1,3.1,0,0,0,.944-2.218V3.137A3.1,3.1,0,0,0,29.5.919,3.266,3.266,0,0,0,27.218,0ZM26.069,18.955a6.13,6.13,0,0,1-1.735,4.379,6.486,6.486,0,0,1-4.5,1.69c-1.772.1-7.087.1-8.859,0a6.494,6.494,0,0,1-4.5-1.69,6.111,6.111,0,0,1-1.735-4.379c-.1-1.727-.1-6.9,0-8.628A6.11,6.11,0,0,1,6.482,5.948a6.5,6.5,0,0,1,4.5-1.685c1.773-.1,7.087-.1,8.859,0a6.486,6.486,0,0,1,4.5,1.69,6.133,6.133,0,0,1,1.735,4.383C26.169,12.055,26.169,17.227,26.069,18.955Z" transform="translate(-0.372)" fill="#2f3241"/>
</svg>
