<svg xmlns="http://www.w3.org/2000/svg" width="30.068" height="29.282" viewBox="0 0 30.068 29.282">
  <path id="_icon__LinkedIn_" data-name="🦆 icon _LinkedIn_" d="M28.664,0H2.885A2.129,2.129,0,0,0,.744,2.111v25.06a2.129,2.129,0,0,0,2.141,2.111H28.664a2.134,2.134,0,0,0,2.148-2.111V2.111A2.134,2.134,0,0,0,28.664,0ZM9.832,25.1H5.375V11.125H9.838V25.1ZM7.6,9.216A2.552,2.552,0,0,1,5.019,6.7,2.585,2.585,0,1,1,7.6,9.216ZM26.537,25.1H22.08V18.3c0-1.621-.034-3.706-2.315-3.706-2.322,0-2.678,1.765-2.678,3.588V25.1H12.63V11.125h4.275v1.909h.06a4.718,4.718,0,0,1,4.222-2.255c4.51,0,5.349,2.9,5.349,6.66Z" transform="translate(-0.744)" fill="#2f3241"/>
</svg>
