<svg xmlns="http://www.w3.org/2000/svg" xmlns:xlink="http://www.w3.org/1999/xlink" width="18" height="20" viewBox="0 0 18 20">
  <defs>
    <clipPath id="clip-path">
      <rect id="Rectangle_4894" data-name="Rectangle 4894" width="18" height="20" transform="translate(-0.491)" fill="#2f3241"/>
    </clipPath>
  </defs>
  <g id="Frame" transform="translate(0.491)" clip-path="url(#clip-path)">
    <path id="Path_41132" data-name="Path 41132" d="M15.652,15.029a3.852,3.852,0,0,1-.3,1.345,4.174,4.174,0,0,1-.618,1.055,3.909,3.909,0,0,1-1.012.911,3.277,3.277,0,0,1-.6.291,3.036,3.036,0,0,1-.63.159c-.143.021-.289.033-.432.045-.105.009-.21.009-.315.012s-.213.009-.318,0c-.146-.009-.295-.027-.44-.048s-.292-.039-.435-.072c-.228-.054-.455-.1-.677-.18a4.593,4.593,0,0,1-1.065-.491c-.359-.234-.723-.452-1.073-.7s-.718-.533-1.065-.815a14.589,14.589,0,0,1-1.2-1.106c-.417-.42-.811-.857-1.19-1.315-.21-.255-.432-.5-.636-.758-.271-.342-.54-.686-.8-1.037-.228-.309-.446-.626-.659-.944-.169-.252-.324-.515-.478-.776-.128-.216-.254-.431-.373-.65-.1-.189-.2-.378-.292-.572C.881,9.015.709,8.647.557,8.269.443,7.985.353,7.691.265,7.4.2,7.161.143,6.918.093,6.675.064,6.532.058,6.385.035,6.238a4.3,4.3,0,0,1-.026-.866,4.585,4.585,0,0,1,.041-.53,4.949,4.949,0,0,1,.219-.89,4.279,4.279,0,0,1,.715-1.3,3.366,3.366,0,0,1,1.1-.914,4.451,4.451,0,0,1,1.062-.36A3.5,3.5,0,0,1,4,1.3a2.786,2.786,0,0,1,.525.048,1.012,1.012,0,0,1,.613.47,2.95,2.95,0,0,1,.359.992c.131.584.263,1.169.382,1.756.07.342.12.686.175,1.031.023.144.044.291.055.437a.55.55,0,0,1-.16.419,1.338,1.338,0,0,1-.446.345c-.2.1-.408.18-.61.276-.175.087-.35.18-.519.279a.336.336,0,0,0-.155.381,4.427,4.427,0,0,0,.114.518,3.88,3.88,0,0,0,.169.431,12.109,12.109,0,0,0,.729,1.444A9.971,9.971,0,0,0,6.1,11.377c.245.291.5.578.761.851a9.806,9.806,0,0,0,1.3,1.124c.23.168.452.345.683.509a1.6,1.6,0,0,0,.6.276.413.413,0,0,0,.379-.129,1.72,1.72,0,0,0,.344-.452,3.153,3.153,0,0,1,.5-.722,1.04,1.04,0,0,1,.443-.3.6.6,0,0,1,.347.009,11.877,11.877,0,0,1,1.374.515c.344.159.7.291,1.047.443.21.093.417.2.621.309.254.138.507.282.755.434a.724.724,0,0,1,.347.465C15.637,14.819,15.64,14.924,15.652,15.029Z" transform="translate(-0.491 0.648)" fill="#2f3241"/>
    <path id="Path_41133" data-name="Path 41133" d="M13.382,6.778c-.018-.048-.035-.1-.056-.147l-.2-.494-.035-.09c-.018-.03-.032-.06-.05-.09-.023-.051-.047-.1-.073-.156-.07-.141-.137-.282-.21-.419a1.153,1.153,0,0,0-.085-.126.006.006,0,0,0,0-.009l-.125-.219-.026-.045c-.021-.033-.041-.069-.061-.1-.05-.072-.1-.141-.152-.213l-.026-.039-.245-.342a.008.008,0,0,0-.009-.009L11.964,4.2l-.026-.039L11.894,4.1c-.02-.021-.038-.042-.058-.063A.2.2,0,0,0,11.809,4c-.123-.141-.239-.285-.368-.419-.158-.162-.324-.318-.487-.473a.528.528,0,0,1-.041-.039l-.187-.162-.012-.012c-.114-.093-.228-.186-.344-.279a.494.494,0,0,1-.041-.03.5.5,0,0,1-.041-.033l-.012-.009c-.233-.162-.467-.327-.7-.488,0,0-.006-.006-.009-.006-.052-.03-.1-.063-.155-.093a.436.436,0,0,1-.05-.03c-.3-.15-.592-.3-.89-.452l-.064-.027c-.061-.027-.123-.054-.184-.078-.02-.006-.041-.015-.058-.021-.123-.045-.248-.093-.37-.135-.088-.03-.181-.057-.268-.084-.032-.012-.064-.021-.1-.033-.076-.024-.152-.045-.228-.069L7.023.98,6.737.911C6.69.9,6.644.887,6.6.878A.555.555,0,0,1,6.329.644C6.314.551,6.3.461,6.285.369A.452.452,0,0,1,6.652,0H6.81l.455.1c.018.006.038.009.055.015l.341.1c.015.006.029.009.044.015l.3.1A.041.041,0,0,0,8.02.336l.327.117a.267.267,0,0,0,.029.015c.265.117.534.228.8.351a9.354,9.354,0,0,1,1.456.869,9.9,9.9,0,0,1,1.324,1.142c.2.207.385.425.575.641,0,0,0,.006.006.009A11.476,11.476,0,0,1,13.323,4.6a8.944,8.944,0,0,1,.627,1.214c.088.21.175.422.26.632.009.024.015.048.023.072.035.1.07.207.108.309,0,.015.009.03.012.042.067.24.134.476.2.716.006.03.015.057.02.087.029.135.058.273.085.407.006.024.009.048.015.072s0,.021.006.033l.018.087c.026.186.055.372.082.554,0,.018.006.036.009.057s.009.057.012.087.006.078.009.12c.012.156.023.312.035.464,0,.033.006.069.012.1s0,.078,0,.117v.045a.577.577,0,0,0,0,.072c0,.072,0,.147.006.219v.087c0,.039,0,.078,0,.117,0,.021,0,.039,0,.06,0,.069,0,.135-.006.2a.087.087,0,0,0-.006.027l-.009.045a.516.516,0,0,1-.213.279.5.5,0,0,0-.056.03l-.07.018h-.029l-.2-.006-.1-.054-.14-.162c-.009-.024-.02-.051-.029-.075a.124.124,0,0,0-.012-.03c0-.018,0-.039,0-.057a.611.611,0,0,1-.015-.072c0-.009,0-.018.006-.027q0-.117.009-.234c0-.087,0-.174,0-.264s-.012-.162-.015-.243c-.006-.12-.006-.24-.012-.357,0-.009-.009-.018-.015-.03s0-.027-.006-.042,0-.057,0-.087-.009-.087-.015-.132c0-.009-.009-.021-.012-.03-.006-.069-.012-.135-.015-.2,0-.033-.006-.063-.012-.1-.015-.075-.029-.153-.044-.228,0-.015,0-.03,0-.042-.009-.048-.02-.1-.029-.147s-.017-.087-.026-.132c-.015-.072-.029-.147-.044-.219-.006-.018-.009-.039-.015-.057-.009-.036-.015-.069-.023-.1s-.02-.1-.032-.144c-.009-.03-.018-.06-.023-.09l-.026-.09c-.006-.03-.015-.057-.02-.087s-.02-.057-.029-.087l-.14-.44c0-.015-.009-.027-.012-.042A.212.212,0,0,1,13.382,6.778Z" transform="translate(2.651)" fill="#2f3241"/>
    <path id="Path_41134" data-name="Path 41134" d="M10.068,4.845a.262.262,0,0,1-.023-.03c-.026-.03-.05-.063-.076-.093,0-.006,0-.009-.006-.009-.111-.123-.225-.246-.335-.372t-.009-.009l-.233-.225c0-.006,0-.006-.009-.009-.029-.027-.061-.051-.09-.078,0,0-.009-.006-.012-.012l-.117-.1c-.1-.078-.193-.162-.295-.234-.128-.093-.26-.177-.391-.264-.009,0-.015-.009-.023-.012-.181-.1-.362-.207-.543-.309a.333.333,0,0,1-.038-.03c-.178-.078-.353-.156-.531-.231L7.253,2.8c-.082-.027-.16-.057-.242-.084l0,0L7,2.712,6.67,2.628c-.041-.012-.085-.024-.125-.033a.12.12,0,0,1-.029-.012c-.015-.006-.029-.009-.044-.015a.572.572,0,0,1-.239-.249.521.521,0,0,0-.015-.072.469.469,0,0,1,.018-.276.531.531,0,0,1,.254-.243c.1,0,.207,0,.309,0l.088.021c.018.006.038.009.055.015s.067.018.1.03c.07.021.143.039.213.06l.184.063c.053.018.105.039.158.057A.687.687,0,0,0,7.667,2c.061.027.123.051.184.078l.073.027c.055.027.114.051.169.078l.058.027c.009.006.02.009.029.015.114.057.228.117.341.174l.012.009c.041.024.085.048.125.069l.1.06c.09.057.181.114.271.168l.026.018a.163.163,0,0,1,.023.018l.041.027c.041.027.082.057.12.084.018.012.035.027.055.039l.429.333c.006,0,.009.009.015.012.032.03.067.057.1.087.015.012.029.027.044.039.044.045.09.087.134.132.2.2.391.407.583.611.026.027.05.054.076.081.05.063.1.126.146.189l.026.03c.067.093.134.186.2.279.012.018.026.036.038.057l.213.345c.009.009.015.021.023.03l.082.138c.023.042.047.084.067.126a.282.282,0,0,1,.015.03c.018.033.032.066.05.1.067.141.131.282.2.422l.044.1c.023.057.047.117.07.174.009.021.015.039.023.06s.015.039.02.057c.032.087.061.177.093.264.006.024.015.048.02.072a.318.318,0,0,1,.012.03c.021.075.044.147.064.222a.4.4,0,0,1,.015.057c.015.054.026.108.041.162.009.027.015.057.023.084v.03l.07.306c.009.048.018.1.029.147s.012.087.015.132c0,.015.009.03.012.045.018.147.035.291.056.437.012.21.02.419.032.629v.1c-.012.078-.023.153-.035.231l-.009.027c-.029.039-.058.078-.09.117a.8.8,0,0,1-.067.075l-.2.051a.422.422,0,0,1-.47-.47V8.905c0-.039,0-.078,0-.117,0-.021,0-.039,0-.06s0-.021,0-.03l-.009-.045-.009-.045c0-.03,0-.057,0-.087V8.477c-.006-.039-.009-.078-.015-.117l-.009-.09-.018-.189a.78.78,0,0,0-.012-.087c-.012-.069-.026-.138-.041-.207,0-.015,0-.027-.006-.042s-.006-.021-.009-.03c-.006-.039-.012-.078-.02-.114-.006-.015-.009-.03-.015-.045V7.542c-.032-.126-.064-.255-.093-.381-.012-.039-.02-.078-.032-.117-.032-.1-.064-.195-.1-.294-.009-.024-.018-.048-.026-.075l-.07-.189c0-.009,0-.018-.006-.027-.032-.072-.064-.147-.1-.219-.009-.021-.018-.039-.026-.06-.055-.117-.114-.234-.169-.351l-.055-.1-.1-.174c0-.009-.009-.021-.012-.03-.038-.063-.079-.126-.117-.189a.392.392,0,0,0-.029-.045c-.029-.039-.055-.081-.085-.12C10.231,5.07,10.15,4.959,10.068,4.845Z" transform="translate(2.61 0.863)" fill="#2f3241"/>
    <path id="Path_41135" data-name="Path 41135" d="M9.881,7.663a1.813,1.813,0,0,1-.067.327.384.384,0,0,1-.292.24.436.436,0,0,1-.49-.252A.5.5,0,0,1,9,7.816c-.012-.162-.023-.324-.032-.488a2.994,2.994,0,0,0-.184-.833A3.288,3.288,0,0,0,7.705,5.009a3.316,3.316,0,0,0-1.047-.545c-.09-.027-.181-.048-.271-.072a.465.465,0,0,1-.318-.4.521.521,0,0,1,.093-.318.378.378,0,0,1,.35-.153,2.611,2.611,0,0,1,.764.222A4.172,4.172,0,0,1,9.508,5.955,3.981,3.981,0,0,1,9.806,7C9.835,7.214,9.855,7.424,9.881,7.663Z" transform="translate(2.543 1.757)" fill="#2f3241"/>
    <path id="Path_41136" data-name="Path 41136" d="M9.622,5.619c.006.015.009.03.015.045A.269.269,0,0,1,9.622,5.619Z" transform="translate(4.32 2.81)" fill="#2f3241"/>
    <path id="Path_41137" data-name="Path 41137" d="M11.875,5.466c0-.012,0-.021-.006-.033C11.873,5.445,11.873,5.454,11.875,5.466Z" transform="translate(5.444 2.717)" fill="#2f3241"/>
    <path id="Path_41138" data-name="Path 41138" d="M9.643,5.725l.009.03A.117.117,0,0,0,9.643,5.725Z" transform="translate(4.33 2.863)" fill="#2f3241"/>
    <path id="Path_41139" data-name="Path 41139" d="M6.409,2.3a.119.119,0,0,1,.029.012A.119.119,0,0,0,6.409,2.3Z" transform="translate(2.713 1.15)" fill="#2f3241"/>
  </g>
</svg>
