<svg xmlns="http://www.w3.org/2000/svg" width="45.204" height="44.3" viewBox="0 0 45.204 44.3">
  <g id="Group_21234" data-name="Group 21234" transform="translate(-533.5 -237.5)">
    <path id="Path_41146" data-name="Path 41146" d="M533.5,259.2c.1-.061.261-.1.3-.188a4.324,4.324,0,0,1,4.2-2.651,13.421,13.421,0,0,1,5.457,1.29c1.688.7,3.341,1.487,5.041,2.25,1.527-1.709,3.063-3.462,4.636-5.181a133.577,133.577,0,0,1,12.806-12.635,20.849,20.849,0,0,1,6.99-4.336c.039-.012.036-.162.052-.248h3.014c.024.086.027.232.074.248a3.787,3.787,0,0,1,2.382,2.112c.021.046.168.035.257.051v2.562c-.088.009-.238-.008-.256.032a10.5,10.5,0,0,1-2.871,3.446c-10.144,9.285-17.253,20.6-22.337,33.28a3.8,3.8,0,0,1-1.9,2.311c-.048.021-.039.169-.057.258h-2.411a1.441,1.441,0,0,0-.174-.322c-.5-.54-1.057-1.041-1.515-1.617a11.424,11.424,0,0,1-.833-1.426,64.236,64.236,0,0,0-9.044-12.712c-1.245-1.289-2.467-2.6-3.7-3.9,0,0-.065.054-.1.083Zm15.467,3.055c-2.345-1.046-4.642-2.109-6.971-3.1a9.054,9.054,0,0,0-4.311-.856,2.284,2.284,0,0,0-2.118,1.539,1.856,1.856,0,0,0,.731,2.232,48.96,48.96,0,0,1,8.9,10.76c1.286,2.066,2.475,4.192,3.772,6.251a1.9,1.9,0,0,0,1.179.744c.572.1.948-.358,1.147-.9.043-.118.09-.234.137-.35,5.067-12.62,12.066-23.956,22.08-33.3a29.291,29.291,0,0,0,2.721-2.809c1.1-1.349.427-2.825-1.317-3.007a3.521,3.521,0,0,0-1.045.062,11.81,11.81,0,0,0-4.7,2.455,101.215,101.215,0,0,0-12.909,12.185C553.781,256.827,551.385,259.567,548.967,262.253Z" transform="translate(0 0)" fill="#fff"/>
    <path id="Path_41147" data-name="Path 41147" d="M559.838,273.235c2.418-2.687,4.814-5.426,7.295-8.087a101.224,101.224,0,0,1,12.909-12.185,11.811,11.811,0,0,1,4.7-2.455,3.522,3.522,0,0,1,1.045-.062c1.743.182,2.421,1.659,1.317,3.007a29.287,29.287,0,0,1-2.721,2.809c-10.014,9.342-17.014,20.678-22.08,33.3-.047.116-.094.233-.137.35-.2.541-.576.995-1.147.9a1.9,1.9,0,0,1-1.179-.744c-1.3-2.059-2.486-4.185-3.772-6.251a48.961,48.961,0,0,0-8.9-10.76,1.856,1.856,0,0,1-.731-2.232,2.284,2.284,0,0,1,2.118-1.539,9.053,9.053,0,0,1,4.311.856C555.2,271.126,557.493,272.189,559.838,273.235Z" transform="translate(-10.871 -10.982)" fill="#34a476"/>
  </g>
</svg>
