<svg id="Group_21222" data-name="Group 21222" xmlns="http://www.w3.org/2000/svg" width="30.071" height="29.28" viewBox="0 0 30.071 29.28">
  <rect id="Rectangle_4895" data-name="Rectangle 4895" width="30.071" height="29.28" rx="2" fill="#2f3241"/>
  <g id="c7a8558c636911c0f3135e6fe4b3e424" transform="translate(4.035 3.228)">
    <path id="Path_41127" data-name="Path 41127" d="M21.4,10h-.028a11.4,11.4,0,0,0,0,22.805H21.4A11.4,11.4,0,1,0,21.4,10Zm.456,6.824a16.844,16.844,0,0,0,3.519-.468,20.315,20.315,0,0,1,.586,4.592H21.86Zm0-.912V10.984c1.229.34,2.476,1.981,3.27,4.494A15.765,15.765,0,0,1,21.86,15.911Zm-.912-4.936v4.936a15.835,15.835,0,0,1-3.3-.44C18.453,12.942,19.71,11.3,20.948,10.975Zm0,5.849v4.124H16.814a20.473,20.473,0,0,1,.586-4.6A16.8,16.8,0,0,0,20.948,16.824ZM15.9,20.948H10.924a10.432,10.432,0,0,1,2.372-6.2,16.884,16.884,0,0,0,3.221,1.359A21.794,21.794,0,0,0,15.9,20.948Zm0,.912a21.537,21.537,0,0,0,.624,4.836A16.821,16.821,0,0,0,13.3,28.055a10.419,10.419,0,0,1-2.374-6.2Zm.919,0h4.133v4.119a16.655,16.655,0,0,0-3.547.475A20.336,20.336,0,0,1,16.814,21.86Zm4.133,5.029v4.943c-1.238-.324-2.5-1.971-3.3-4.5A16.036,16.036,0,0,1,20.948,26.889Zm.912,4.934V26.889a15.924,15.924,0,0,1,3.27.435C24.336,29.84,23.091,31.483,21.86,31.823Zm0-5.844V21.86h4.105a20.539,20.539,0,0,1-.586,4.587A16.541,16.541,0,0,0,21.86,25.979Zm5.022-4.119h5a10.437,10.437,0,0,1-2.372,6.2,16.894,16.894,0,0,0-3.249-1.368A21.612,21.612,0,0,0,26.882,21.86Zm0-.912a21.362,21.362,0,0,0-.624-4.832,16.812,16.812,0,0,0,3.247-1.368,10.443,10.443,0,0,1,2.376,6.2Zm2-6.9a15.864,15.864,0,0,1-2.865,1.185A10.234,10.234,0,0,0,23.848,11.2,10.5,10.5,0,0,1,28.879,14.052ZM18.925,11.21a10.2,10.2,0,0,0-2.157,4.019,15.86,15.86,0,0,1-2.839-1.178A10.488,10.488,0,0,1,18.925,11.21Zm-5,17.541a15.954,15.954,0,0,1,2.842-1.178,10.238,10.238,0,0,0,2.16,4.022A10.48,10.48,0,0,1,13.924,28.751ZM23.848,31.6a10.206,10.206,0,0,0,2.169-4.04,15.992,15.992,0,0,1,2.867,1.187A10.5,10.5,0,0,1,23.848,31.6Z" transform="translate(-10 -10)" fill="#fff" stroke="#fff" strokeWidth="1"/>
  </g>
</svg>
